<svg height="512" viewBox="0 0 512 512" width="512" xmlns="http://www.w3.org/2000/svg" xmlns:xlink="http://www.w3.org/1999/xlink"><linearGradient id="a" gradientTransform="matrix(1.870246 0 0 1.8503717 -258.09394 -218.34386)" gradientUnits="userSpaceOnUse" x1="140" x2="372" y1="128" y2="200"><stop offset="0" stop-color="#0b1220"/><stop offset="1" stop-color="#111a2e"/></linearGradient><g transform="translate(35.310975)"><rect fill="#0b1220" height="510.70258" opacity=".92" rx="48.626396" stroke-width="1.86029" width="441.37805" x="-.000001" y="-.000001"/><rect fill="url(#a)" height="140.62825" rx="33.664425" stroke-width="1.86029" width="403.97314" x="18.702459" y="18.503716"/><text style="text-anchor:end;font-family:ui-monospace, SFMono-Regular, Menlo, Monaco, Consolas, 'Liberation Mono', 'Courier New', monospace;font-size:45.0401;fill:#a7f3d0;opacity:.95;stroke-width:1.73231" transform="scale(.93619577 1.0681527)" x="432.06491" y="100.47398">sin(π/2)=1</text><g transform="matrix(1.870246 0 0 1.8503717 -258.09394 -218.34386)"><g fill="#111a2e"><rect height="44" rx="10" width="50" x="148" y="220"/><rect height="44" rx="10" width="50" x="206" y="220"/><rect height="44" rx="10" width="50" x="264" y="220"/><rect fill="#1b2a4a" height="44" rx="10" width="42" x="322" y="220"/></g><g fill="#111a2e"><rect height="44" rx="10" width="50" x="148" y="272"/><rect height="44" rx="10" width="50" x="206" y="272"/><rect height="44" rx="10" width="50" x="264" y="272"/><rect fill="#1b2a4a" height="44" rx="10" width="42" x="322" y="272"/></g><g fill="#111a2e"><rect height="44" rx="10" width="50" x="148" y="324"/><rect height="44" rx="10" width="50" x="206" y="324"/><rect height="44" rx="10" width="50" x="264" y="324"/><rect fill="#1b2a4a" height="44" rx="10" width="42" x="322" y="324"/></g><g fill="#e5e7eb" font-family="ui-monospace, SFMono-Regular, Menlo, Monaco, Consolas, 'Liberation Mono', 'Courier New', monospace" font-size="18" opacity=".95" text-anchor="middle"><text x="173" y="249">π</text><text x="231" y="249">√</text><text x="289" y="249">x²</text><text x="343" y="249">÷</text><text x="173" y="301">sin</text><text x="231" y="301">cos</text><text x="289" y="301">tan</text><text x="343" y="301">×</text><text x="173" y="353">ln</text><text x="231" y="353">log</text><text x="289" y="353">^</text><text x="343" y="353">=</text></g></g><path d="m56.107376 51.810408h100.993284" opacity=".45" stroke="#93c5fd" stroke-linecap="round" stroke-width="11.1617"/><path d="m56.107376 81.416355h63.588364" opacity=".3" stroke="#93c5fd" stroke-linecap="round" stroke-width="11.1617"/></g></svg>