<svg height="512" viewBox="0 0 512 512" width="512" xmlns="http://www.w3.org/2000/svg"><g stroke-width=".954058"><path d="m87.989576-1.7148437c-35.045835 0-63.726468 31.5093637-63.726468 70.0117187v376.035155c0 38.50236 28.680633 70.01172 63.726468 70.01172h336.020844c35.04584 0 63.72647-31.50936 63.72647-70.01172v-376.035155c0-38.502355-28.68063-70.0117187-63.72647-70.0117187zm0 32.8476557h336.020844c18.99935 0 33.8277 16.290837 33.8277 37.164063v376.035155c0 20.87323-14.82835 37.16406-33.8277 37.16406h-336.020844c-18.999348 0-33.829464-16.29083-33.829464-37.16406v-376.035155c0-20.873226 14.830116-37.164063 33.829464-37.164063z"/><path d="m112.37723 59.126953c-15.857628 0-28.935227 14.367425-28.935227 31.789063v53.957034c0 17.42163 13.077599 31.78906 28.935227 31.78906h287.24377c15.85762 0 28.93522-14.36743 28.93522-31.78906v-53.957034c0-17.421638-13.0776-31.789063-28.93522-31.789063zm0 21.898438h287.24377c5.15995 0 9.0027 4.221758 9.0027 9.890625v53.957034c0 5.66886-3.84275 9.89062-9.0027 9.89062h-287.24377c-5.15995 0-9.00271-4.22176-9.00271-9.89062v-53.957034c0-5.668867 3.84276-9.890625 9.00271-9.890625z"/><path d="m156.65295 89.300781c-15.40236 0-29.95418 9.555699-43.36372 26.187499a7.4745462 8.21175 0 0 0 .63823 11.5918 7.4745462 8.21175 0 0 0 10.55115-.70117c11.76958-14.59778 22.39758-20.65625 32.17434-20.65625s20.40299 6.05847 32.17256 20.65625c13.40955 16.63179 27.96137 26.18945 43.36373 26.18945s29.95419-9.55766 43.36372-26.18945c11.76958-14.59778 22.39759-20.65625 32.17435-20.65625s20.40477 6.05847 32.17435 20.65625c6.29477 7.80739 11.03461 13.7556 15.47739 18.1289 4.44277 4.3733 9.4539 8.06938 15.69784 7.11328 6.24394-.95609 10.11302-5.71976 13.75116-11.22265 3.63814-5.5029 7.42112-12.74279 12.45694-22.28516a7.4745462 8.21175 0 0 0 -2.71823-11.22265 7.4745462 8.21175 0 0 0 -10.21516 2.98437c-5.03582 9.54237-8.80558 16.61475-11.61959 20.87109-2.81401 4.25635-4.29599 4.69798-3.71735 4.60938s-.39035.13714-3.65868-3.08008-7.97017-8.97972-14.26494-16.78711c-13.40954-16.6318-27.96137-26.187499-43.36373-26.187499s-29.95419 9.555698-43.36372 26.187499c-11.76959 14.59777-22.39759 20.65625-32.17435 20.65625s-20.40298-6.05848-32.17256-20.65625c-13.40953-16.631801-27.96137-26.187499-43.36373-26.187499z" stroke-linecap="round" stroke-linejoin="round"/><path d="m102.34696 197.89648c-10.026045 0-18.288066 9.0769-18.288066 20.0918v25.96094c0 11.0149 8.262021 20.0918 18.288066 20.0918h43.79395c10.02605 0 18.28807-9.0769 18.28807-20.0918v-25.96094c0-11.0149-8.26202-20.0918-18.28807-20.0918zm0 13.45508h43.79395c3.45237 0 6.04091 2.84385 6.04091 6.63672v25.96094c0 3.79287-2.58854 6.63672-6.04091 6.63672h-43.79395c-3.452365 0-6.03913-2.84385-6.03913-6.63672v-25.96094c0-3.79287 2.586765-6.63672 6.03913-6.63672z"/><path d="m189.93308 197.89648c-10.02605 0-18.28807 9.0769-18.28807 20.0918v25.96094c0 11.0149 8.26202 20.0918 18.28807 20.0918h43.79217c10.02604 0 18.28985-9.0769 18.28985-20.0918v-25.96094c0-11.0149-8.26381-20.0918-18.28985-20.0918zm0 13.45508h43.79217c3.45237 0 6.04091 2.84385 6.04091 6.63672v25.96094c0 3.79287-2.58854 6.63672-6.04091 6.63672h-43.79217c-3.45237 0-6.04091-2.84385-6.04091-6.63672v-25.96094c0-3.79287 2.58854-6.63672 6.04091-6.63672z"/><path d="m277.51919 197.89648c-10.02604 0-18.28984 9.0769-18.28984 20.0918v25.96094c0 11.0149 8.2638 20.0918 18.28984 20.0918h43.79218c10.02604 0 18.28807-9.0769 18.28807-20.0918v-25.96094c0-11.0149-8.26203-20.0918-18.28807-20.0918zm0 13.45508h43.79218c3.45236 0 6.04091 2.84385 6.04091 6.63672v25.96094c0 3.79287-2.58855 6.63672-6.04091 6.63672h-43.79218c-3.45236 0-6.04091-2.84385-6.04091-6.63672v-25.96094c0-3.79287 2.58855-6.63672 6.04091-6.63672z"/><path d="m365.10395 204.62393h43.7927c6.73921 0 12.16464 5.96053 12.16464 13.36442v25.96068c0 7.40389-5.42543 13.36442-12.16464 13.36442h-43.7927c-6.7392 0-12.16464-5.96053-12.16464-13.36442v-25.96068c0-7.40389 5.42544-13.36442 12.16464-13.36442z" fill="#fff"/><path d="m365.10353 197.89648c-10.02605 0-18.28807 9.0769-18.28807 20.0918v25.96094c0 11.0149 8.26202 20.0918 18.28807 20.0918h43.79395c10.02605 0 18.28806-9.0769 18.28806-20.0918v-25.96094c0-11.0149-8.26201-20.0918-18.28806-20.0918z"/><path d="m102.34696 265.63867c-10.026045 0-18.288066 9.07885-18.288066 20.09375v25.96094c0 11.0149 8.262021 20.0918 18.288066 20.0918h43.79395c10.02605 0 18.28807-9.0769 18.28807-20.0918v-25.96094c0-11.0149-8.26202-20.09375-18.28807-20.09375zm0 13.45703h43.79395c3.45237 0 6.04091 2.84385 6.04091 6.63672v25.96094c0 3.79287-2.58854 6.63476-6.04091 6.63476h-43.79395c-3.452365 0-6.03913-2.84189-6.03913-6.63476v-25.96094c0-3.79287 2.586765-6.63672 6.03913-6.63672z"/><path d="m189.93308 265.63867c-10.02605 0-18.28807 9.07885-18.28807 20.09375v25.96094c0 11.0149 8.26202 20.0918 18.28807 20.0918h43.79217c10.02604 0 18.28985-9.0769 18.28985-20.0918v-25.96094c0-11.0149-8.26381-20.09375-18.28985-20.09375zm0 13.45703h43.79217c3.45237 0 6.04091 2.84385 6.04091 6.63672v25.96094c0 3.79287-2.58854 6.63476-6.04091 6.63476h-43.79217c-3.45237 0-6.04091-2.84189-6.04091-6.63476v-25.96094c0-3.79287 2.58854-6.63672 6.04091-6.63672z"/><path d="m277.51919 265.63867c-10.02604 0-18.28984 9.07885-18.28984 20.09375v25.96094c0 11.0149 8.2638 20.0918 18.28984 20.0918h43.79218c10.02604 0 18.28807-9.0769 18.28807-20.0918v-25.96094c0-11.0149-8.26203-20.09375-18.28807-20.09375zm0 13.45703h43.79218c3.45236 0 6.04091 2.84385 6.04091 6.63672v25.96094c0 3.79287-2.58855 6.63476-6.04091 6.63476h-43.79218c-3.45236 0-6.04091-2.84189-6.04091-6.63476v-25.96094c0-3.79287 2.58855-6.63672 6.04091-6.63672z"/><path d="m365.10354 265.63867c-10.02606 0-18.28808 9.07885-18.28808 20.09375v25.96094c0 11.0149 8.26202 20.0918 18.28808 20.0918h43.79394c10.02605 0 18.28807-9.0769 18.28807-20.0918v-25.96094c0-11.0149-8.26202-20.09375-18.28807-20.09375zm0 13.45703h43.79394c3.45237 0 6.03913 2.84385 6.03913 6.63672v25.96094c0 3.79287-2.58676 6.63476-6.03913 6.63476h-43.79394c-3.45237 0-6.04092-2.84189-6.04092-6.63476v-25.96094c0-3.79287 2.58855-6.63672 6.04092-6.63672z"/><path d="m102.34696 333.38281c-10.026045 0-18.288066 9.07885-18.288066 20.09375v25.95899c0 11.0149 8.262021 20.09375 18.288066 20.09375h43.79395c10.02605 0 18.28807-9.07885 18.28807-20.09375v-25.95899c0-11.0149-8.26202-20.09375-18.28807-20.09375zm0 13.45703h43.79395c3.45237 0 6.04091 2.84385 6.04091 6.63672v25.95899c0 3.79287-2.58854 6.63672-6.04091 6.63672h-43.79395c-3.452365 0-6.03913-2.84385-6.03913-6.63672v-25.95899c0-3.79287 2.586765-6.63672 6.03913-6.63672z"/><path d="m189.93308 333.38281c-10.02605 0-18.28807 9.07885-18.28807 20.09375v25.95899c0 11.0149 8.26202 20.09375 18.28807 20.09375h43.79217c10.02604 0 18.28985-9.07885 18.28985-20.09375v-25.95899c0-11.0149-8.26381-20.09375-18.28985-20.09375zm0 13.45703h43.79217c3.45237 0 6.04091 2.84385 6.04091 6.63672v25.95899c0 3.79287-2.58854 6.63672-6.04091 6.63672h-43.79217c-3.45237 0-6.04091-2.84385-6.04091-6.63672v-25.95899c0-3.79287 2.58854-6.63672 6.04091-6.63672z"/><path d="m277.51919 333.38281c-10.02604 0-18.28984 9.07885-18.28984 20.09375v25.95899c0 11.0149 8.2638 20.09375 18.28984 20.09375h43.79218c10.02604 0 18.28807-9.07885 18.28807-20.09375v-25.95899c0-11.0149-8.26203-20.09375-18.28807-20.09375zm0 13.45703h43.79218c3.45236 0 6.04091 2.84385 6.04091 6.63672v25.95899c0 3.79287-2.58855 6.63672-6.04091 6.63672h-43.79218c-3.45236 0-6.04091-2.84385-6.04091-6.63672v-25.95899c0-3.79287 2.58855-6.63672 6.04091-6.63672z"/><path d="m365.10354 333.38281c-10.02606 0-18.28808 9.07885-18.28808 20.09375v25.95899c0 11.0149 8.26202 20.09375 18.28808 20.09375h43.79394c10.02605 0 18.28807-9.07885 18.28807-20.09375v-25.95899c0-11.0149-8.26202-20.09375-18.28807-20.09375zm0 13.45703h43.79394c3.45237 0 6.03913 2.84385 6.03913 6.63672v25.95899c0 3.79287-2.58676 6.63672-6.03913 6.63672h-43.79394c-3.45237 0-6.04092-2.84385-6.04092-6.63672v-25.95899c0-3.79287 2.58855-6.63672 6.04092-6.63672z"/><path d="m102.34696 401.12695c-10.026045 0-18.288066 9.0769-18.288066 20.0918v25.96094c0 11.0149 8.262021 20.09375 18.288066 20.09375h43.79395c10.02605 0 18.28807-9.07885 18.28807-20.09375v-25.96094c0-11.0149-8.26202-20.0918-18.28807-20.0918zm0 13.45703h43.79395c3.45237 0 6.04091 2.8419 6.04091 6.63477v25.96094c0 3.79287-2.58854 6.63672-6.04091 6.63672h-43.79395c-3.452365 0-6.03913-2.84385-6.03913-6.63672v-25.96094c0-3.79287 2.586765-6.63477 6.03913-6.63477z"/><path d="m189.93308 401.12695c-10.02605 0-18.28807 9.0769-18.28807 20.0918v25.96094c0 11.0149 8.26202 20.09375 18.28807 20.09375h43.79217c10.02604 0 18.28985-9.07885 18.28985-20.09375v-25.96094c0-11.0149-8.26381-20.0918-18.28985-20.0918zm0 13.45703h43.79217c3.45237 0 6.04091 2.8419 6.04091 6.63477v25.96094c0 3.79287-2.58854 6.63672-6.04091 6.63672h-43.79217c-3.45237 0-6.04091-2.84385-6.04091-6.63672v-25.96094c0-3.79287 2.58854-6.63477 6.04091-6.63477z"/><path d="m277.51919 401.12695c-10.02604 0-18.28984 9.0769-18.28984 20.0918v25.96094c0 11.0149 8.2638 20.09375 18.28984 20.09375h43.79218c10.02604 0 18.28807-9.07885 18.28807-20.09375v-25.96094c0-11.0149-8.26203-20.0918-18.28807-20.0918zm0 13.45703h43.79218c3.45236 0 6.04091 2.8419 6.04091 6.63477v25.96094c0 3.79287-2.58855 6.63672-6.04091 6.63672h-43.79218c-3.45236 0-6.04091-2.84385-6.04091-6.63672v-25.96094c0-3.79287 2.58855-6.63477 6.04091-6.63477z"/><path d="m365.10354 401.12695c-10.02606 0-18.28808 9.0769-18.28808 20.0918v25.96094c0 11.0149 8.26202 20.09375 18.28808 20.09375h43.79394c10.02605 0 18.28807-9.07885 18.28807-20.09375v-25.96094c0-11.0149-8.26202-20.0918-18.28807-20.0918z"/></g></svg>